<svg width="18" height="17" viewBox="0 0 18 17" fill="none" xmlns="http://www.w3.org/2000/svg">
<path d="M9 5.25C7.3425 5.25 6 6.5925 6 8.25C6 9.9075 7.3425 11.25 9 11.25C10.6575 11.25 12 9.9075 12 8.25C12 6.5925 10.6575 5.25 9 5.25ZM15.705 7.5C15.5351 5.97909 14.8531 4.56115 13.771 3.47902C12.6888 2.39689 11.2709 1.71488 9.75 1.545V0H8.25V1.545C6.72909 1.71488 5.31115 2.39689 4.22902 3.47902C3.14689 4.56115 2.46488 5.97909 2.295 7.5H0.75V9H2.295C2.46488 10.5209 3.14689 11.9388 4.22902 13.021C5.31115 14.1031 6.72909 14.7851 8.25 14.955V16.5H9.75V14.955C11.2709 14.7851 12.6888 14.1031 13.771 13.021C14.8531 11.9388 15.5351 10.5209 15.705 9H17.25V7.5H15.705ZM9 13.5C6.0975 13.5 3.75 11.1525 3.75 8.25C3.75 5.3475 6.0975 3 9 3C11.9025 3 14.25 5.3475 14.25 8.25C14.25 11.1525 11.9025 13.5 9 13.5Z" fill="#53B2E8"/>
</svg>
